<svg width="10" height="19" viewBox="0 0 10 19" fill="none" xmlns="http://www.w3.org/2000/svg">
<path d="M8.71493 0.783081H1.28507C0.574002 0.783081 0 1.35966 0 2.06944V17.157C0 17.8661 0.574002 18.442 1.28507 18.442H8.71493C9.42471 18.442 10 17.8661 10 17.157V2.06944C10 1.35966 9.42471 0.783081 8.71493 0.783081ZM3.16667 1.56429H6.83462C6.92729 1.56429 7.00257 1.70264 7.00257 1.87381C7.00257 2.04499 6.92729 2.18398 6.83462 2.18398H3.16667C3.07336 2.18398 2.99936 2.04499 2.99936 1.87381C2.99936 1.70264 3.07336 1.56429 3.16667 1.56429ZM5.00064 17.1724C4.54826 17.1724 4.18018 16.8043 4.18018 16.3513C4.18018 15.8983 4.54826 15.5315 5.00064 15.5315C5.45174 15.5315 5.81982 15.8983 5.81982 16.3513C5.81982 16.8043 5.45174 17.1724 5.00064 17.1724ZM9.03732 14.3609H0.96332V2.95361H9.03732V14.3609Z" fill="#F3A30D"/>
</svg>
